<?xml version="1.0" encoding="UTF-8"?>
<!DOCTYPE svg PUBLIC "-//W3C//DTD SVG 1.1//EN" "http://www.w3.org/Graphics/SVG/1.1/DTD/svg11.dtd">
<svg xmlns="http://www.w3.org/2000/svg" version="1.1" width="256px" height="256px" style="shape-rendering:geometricPrecision; text-rendering:geometricPrecision; image-rendering:optimizeQuality; fill-rule:evenodd; clip-rule:evenodd" xmlns:xlink="http://www.w3.org/1999/xlink">
<g><path style="opacity:0.963" fill="#fe5039" d="M 24.5,-0.5 C 59.5,-0.5 94.5,-0.5 129.5,-0.5C 133.867,2.012 138.534,4.012 143.5,5.5C 193.396,29.4504 224.563,68.7837 237,123.5C 245.272,172.737 234.438,216.737 204.5,255.5C 190.5,255.5 176.5,255.5 162.5,255.5C 185.082,234.95 199.915,210.283 207,181.5C 207.634,177.145 207.967,172.812 208,168.5C 184.863,169.829 161.696,169.829 138.5,168.5C 137.522,168.977 136.689,169.643 136,170.5C 133.727,181.088 128.56,189.922 120.5,197C 115.471,202.672 109.138,207.505 101.5,211.5C 73.5136,221.128 49.3469,215.128 29,193.5C 25.9737,188.327 22.8071,183.827 19.5,180C 19.8333,179.667 20.1667,179.333 20.5,179C 19.1343,175.427 17.4676,171.927 15.5,168.5C 10.2302,169.451 4.89683,169.785 -0.5,169.5C -0.5,116.5 -0.5,63.5 -0.5,10.5C 3.31299,9.09244 6.97966,7.42577 10.5,5.5C 15.4664,4.012 20.1331,2.012 24.5,-0.5 Z M 68.5,122.5 C 96.2814,120.783 109.781,133.783 109,161.5C 102.172,179.673 89.005,187.84 69.5,186C 50.7379,178.989 42.9046,165.489 46,145.5C 48.012,138.138 52.1787,132.304 58.5,128C 61.8181,125.871 65.1514,124.038 68.5,122.5 Z"/></g>
<g><path style="opacity:0.004" fill="#fe5039" d="M 10.5,5.5 C 9.83333,4.16667 9.83333,4.16667 10.5,5.5 Z"/></g>
<g><path style="opacity:0.004" fill="#fe5039" d="M 143.5,4.5 C 144.833,5.16667 144.833,5.16667 143.5,4.5 Z"/></g>
</svg>
